HIERARCHY
ROOT root
{
	OFFSET 0.000000 0.000642 0.045086
	CHANNELS 6 Xposition Yposition Zposition Xrotation Yrotation Zrotation
	JOINT pelvis
	{
		OFFSET -0.003967 0.043983 0.922426
		CHANNELS 6 Xposition Yposition Zposition Xrotation Yrotation Zrotation
		JOINT thigh_R
		{
			OFFSET -0.108457 -0.044120 -0.114620
			CHANNELS 6 Xposition Yposition Zposition Xrotation Yrotation Zrotation
			JOINT calf_R
			{
				OFFSET -0.031978 -0.023263 -0.393771
				CHANNELS 3 Xrotation Yrotation Zrotation
				JOINT foot_R
				{
					OFFSET -0.052496 0.000902 -0.370102
					CHANNELS 3 Xrotation Yrotation Zrotation
					JOINT toes_R
					{
						OFFSET -0.009320 -0.126011 -0.069821
						CHANNELS 6 Xposition Yposition Zposition Xrotation Yrotation Zrotation
						End Site
						{
							OFFSET -0.004473 -0.046724 -0.003049
						}
					}
				}
				JOINT calf_twist_R
				{
					OFFSET 0.000000 0.000000 0.000000
					CHANNELS 6 Xposition Yposition Zposition Xrotation Yrotation Zrotation
					End Site
					{
						OFFSET -0.038816 0.005263 -0.254563
					}
				}
			}
			JOINT thigh_twist_R
			{
				OFFSET 0.000000 -0.000000 0.000000
				CHANNELS 6 Xposition Yposition Zposition Xrotation Yrotation Zrotation
				End Site
				{
					OFFSET -0.013447 -0.026672 -0.173442
				}
			}
		}
		JOINT thigh_L
		{
			OFFSET 0.116390 -0.044120 -0.114620
			CHANNELS 6 Xposition Yposition Zposition Xrotation Yrotation Zrotation
			JOINT calf_L
			{
				OFFSET 0.031978 -0.023263 -0.393771
				CHANNELS 3 Xrotation Yrotation Zrotation
				JOINT foot_L
				{
					OFFSET 0.052496 0.000902 -0.370102
					CHANNELS 3 Xrotation Yrotation Zrotation
					JOINT toes_L
					{
						OFFSET 0.009320 -0.126011 -0.069821
						CHANNELS 3 Xrotation Yrotation Zrotation
						End Site
						{
							OFFSET 0.004473 -0.046724 -0.003049
						}
					}
				}
				JOINT calf_twist_L
				{
					OFFSET 0.000000 0.000000 0.000000
					CHANNELS 6 Xposition Yposition Zposition Xrotation Yrotation Zrotation
					End Site
					{
						OFFSET 0.038816 0.005263 -0.254563
					}
				}
			}
			JOINT thigh_twist_L
			{
				OFFSET 0.000000 0.000000 0.000000
				CHANNELS 6 Xposition Yposition Zposition Xrotation Yrotation Zrotation
				End Site
				{
					OFFSET 0.013447 -0.026672 -0.173442
				}
			}
		}
		JOINT spine01
		{
			OFFSET -0.000108 -0.000434 0.006186
			CHANNELS 3 Xrotation Yrotation Zrotation
			JOINT spine02
			{
				OFFSET 0.004075 -0.053178 0.066675
				CHANNELS 3 Xrotation Yrotation Zrotation
				JOINT spine03
				{
					OFFSET 0.000000 0.008649 0.117635
					CHANNELS 3 Xrotation Yrotation Zrotation
					JOINT clavicle_L
					{
						OFFSET 0.031960 -0.002455 0.159580
						CHANNELS 6 Xposition Yposition Zposition Xrotation Yrotation Zrotation
						JOINT upperarm_L
						{
							OFFSET 0.106613 -0.013377 -0.022582
							CHANNELS 6 Xposition Yposition Zposition Xrotation Yrotation Zrotation
							JOINT lowerarm_L
							{
								OFFSET 0.233664 0.021966 -0.134813
								CHANNELS 3 Xrotation Yrotation Zrotation
								JOINT hand_L
								{
									OFFSET 0.202817 -0.038212 -0.103702
									CHANNELS 3 Xrotation Yrotation Zrotation
									JOINT thumb01_L
									{
										OFFSET 0.008269 -0.017364 -0.009129
										CHANNELS 6 Xposition Yposition Zposition Xrotation Yrotation Zrotation
										JOINT thumb02_L
										{
											OFFSET 0.007103 -0.025549 -0.027526
											CHANNELS 3 Xrotation Yrotation Zrotation
											JOINT thumb03_L
											{
												OFFSET 0.011035 -0.026258 -0.014218
												CHANNELS 3 Xrotation Yrotation Zrotation
												End Site
												{
													OFFSET 0.008927 -0.014147 -0.017737
												}
											}
										}
									}
									JOINT index00_L
									{
										OFFSET 0.015790 -0.019369 -0.010869
										CHANNELS 6 Xposition Yposition Zposition Xrotation Yrotation Zrotation
										JOINT index01_L
										{
											OFFSET 0.047864 -0.007217 -0.023292
											CHANNELS 3 Xrotation Yrotation Zrotation
											JOINT index02_L
											{
												OFFSET 0.026189 -0.000355 -0.020650
												CHANNELS 3 Xrotation Yrotation Zrotation
												JOINT index03_L
												{
													OFFSET 0.017813 0.001193 -0.013583
													CHANNELS 3 Xrotation Yrotation Zrotation
													End Site
													{
														OFFSET 0.013377 0.001373 -0.016250
													}
												}
											}
										}
									}
									JOINT middle00_L
									{
										OFFSET 0.016276 -0.006169 -0.012863
										CHANNELS 6 Xposition Yposition Zposition Xrotation Yrotation Zrotation
										JOINT middle01_L
										{
											OFFSET 0.049067 -0.003947 -0.017410
											CHANNELS 3 Xrotation Yrotation Zrotation
											JOINT middle02_L
											{
												OFFSET 0.029087 0.000312 -0.026941
												CHANNELS 3 Xrotation Yrotation Zrotation
												JOINT middle03_L
												{
													OFFSET 0.019190 0.000267 -0.015543
													CHANNELS 3 Xrotation Yrotation Zrotation
													End Site
													{
														OFFSET 0.014683 0.000017 -0.017510
													}
												}
											}
										}
									}
									JOINT ring00_L
									{
										OFFSET 0.017106 0.003470 -0.011997
										CHANNELS 6 Xposition Yposition Zposition Xrotation Yrotation Zrotation
										JOINT ring01_L
										{
											OFFSET 0.044984 0.002116 -0.016733
											CHANNELS 3 Xrotation Yrotation Zrotation
											JOINT ring02_L
											{
												OFFSET 0.028856 0.000400 -0.026983
												CHANNELS 3 Xrotation Yrotation Zrotation
												JOINT ring03_L
												{
													OFFSET 0.017620 0.000363 -0.013833
													CHANNELS 3 Xrotation Yrotation Zrotation
													End Site
													{
														OFFSET 0.015507 -0.000807 -0.015547
													}
												}
											}
										}
									}
									JOINT pinky00_L
									{
										OFFSET 0.014366 0.020048 -0.015014
										CHANNELS 6 Xposition Yposition Zposition Xrotation Yrotation Zrotation
										JOINT pinky01_L
										{
											OFFSET 0.041296 0.001442 -0.016227
											CHANNELS 3 Xrotation Yrotation Zrotation
											JOINT pinky02_L
											{
												OFFSET 0.024951 -0.000301 -0.020450
												CHANNELS 3 Xrotation Yrotation Zrotation
												JOINT pinky03_L
												{
													OFFSET 0.013007 -0.001157 -0.010280
													CHANNELS 3 Xrotation Yrotation Zrotation
													End Site
													{
														OFFSET 0.009963 -0.001160 -0.011403
													}
												}
											}
										}
									}
								}
								JOINT lowerarm_twist_L
								{
									OFFSET 0.000000 -0.000000 0.000000
									CHANNELS 6 Xposition Yposition Zposition Xrotation Yrotation Zrotation
									End Site
									{
										OFFSET 0.113147 -0.023106 -0.058600
									}
								}
							}
							JOINT upperarm_twist_L
							{
								OFFSET 0.000000 0.000000 0.000000
								CHANNELS 6 Xposition Yposition Zposition Xrotation Yrotation Zrotation
								End Site
								{
									OFFSET 0.131225 0.003005 -0.082365
								}
							}
						}
					}
					JOINT clavicle_R
					{
						OFFSET -0.031960 -0.002455 0.159580
						CHANNELS 6 Xposition Yposition Zposition Xrotation Yrotation Zrotation
						JOINT upperarm_R
						{
							OFFSET -0.106613 -0.013377 -0.022582
							CHANNELS 6 Xposition Yposition Zposition Xrotation Yrotation Zrotation
							JOINT lowerarm_R
							{
								OFFSET -0.233664 0.021966 -0.134813
								CHANNELS 3 Xrotation Yrotation Zrotation
								JOINT hand_R
								{
									OFFSET -0.202817 -0.038212 -0.103702
									CHANNELS 3 Xrotation Yrotation Zrotation
									JOINT thumb01_R
									{
										OFFSET -0.008269 -0.017364 -0.009129
										CHANNELS 6 Xposition Yposition Zposition Xrotation Yrotation Zrotation
										JOINT thumb02_R
										{
											OFFSET -0.007103 -0.025549 -0.027526
											CHANNELS 3 Xrotation Yrotation Zrotation
											JOINT thumb03_R
											{
												OFFSET -0.011035 -0.026258 -0.014218
												CHANNELS 3 Xrotation Yrotation Zrotation
												End Site
												{
													OFFSET -0.008927 -0.014147 -0.017737
												}
											}
										}
									}
									JOINT index00_R
									{
										OFFSET -0.015790 -0.019369 -0.010869
										CHANNELS 6 Xposition Yposition Zposition Xrotation Yrotation Zrotation
										JOINT index01_R
										{
											OFFSET -0.047864 -0.007217 -0.023292
											CHANNELS 3 Xrotation Yrotation Zrotation
											JOINT index02_R
											{
												OFFSET -0.026189 -0.000355 -0.020650
												CHANNELS 3 Xrotation Yrotation Zrotation
												JOINT index03_R
												{
													OFFSET -0.017813 0.001193 -0.013583
													CHANNELS 3 Xrotation Yrotation Zrotation
													End Site
													{
														OFFSET -0.013377 0.001373 -0.016250
													}
												}
											}
										}
									}
									JOINT middle00_R
									{
										OFFSET -0.016276 -0.006169 -0.012863
										CHANNELS 6 Xposition Yposition Zposition Xrotation Yrotation Zrotation
										JOINT middle01_R
										{
											OFFSET -0.049067 -0.003947 -0.017410
											CHANNELS 3 Xrotation Yrotation Zrotation
											JOINT middle02_R
											{
												OFFSET -0.029087 0.000312 -0.026941
												CHANNELS 3 Xrotation Yrotation Zrotation
												JOINT middle03_R
												{
													OFFSET -0.019190 0.000267 -0.015543
													CHANNELS 3 Xrotation Yrotation Zrotation
													End Site
													{
														OFFSET -0.014683 0.000017 -0.017510
													}
												}
											}
										}
									}
									JOINT ring00_R
									{
										OFFSET -0.017106 0.003470 -0.011997
										CHANNELS 6 Xposition Yposition Zposition Xrotation Yrotation Zrotation
										JOINT ring01_R
										{
											OFFSET -0.044984 0.002116 -0.016733
											CHANNELS 3 Xrotation Yrotation Zrotation
											JOINT ring02_R
											{
												OFFSET -0.028856 0.000400 -0.026983
												CHANNELS 3 Xrotation Yrotation Zrotation
												JOINT ring03_R
												{
													OFFSET -0.017620 0.000363 -0.013833
													CHANNELS 3 Xrotation Yrotation Zrotation
													End Site
													{
														OFFSET -0.015507 -0.000807 -0.015547
													}
												}
											}
										}
									}
									JOINT pinky00_R
									{
										OFFSET -0.014366 0.020048 -0.015014
										CHANNELS 6 Xposition Yposition Zposition Xrotation Yrotation Zrotation
										JOINT pinky01_R
										{
											OFFSET -0.041296 0.001442 -0.016227
											CHANNELS 3 Xrotation Yrotation Zrotation
											JOINT pinky02_R
											{
												OFFSET -0.024951 -0.000301 -0.020450
												CHANNELS 3 Xrotation Yrotation Zrotation
												JOINT pinky03_R
												{
													OFFSET -0.013007 -0.001157 -0.010280
													CHANNELS 3 Xrotation Yrotation Zrotation
													End Site
													{
														OFFSET -0.009963 -0.001160 -0.011403
													}
												}
											}
										}
									}
								}
								JOINT lowerarm_twist_R
								{
									OFFSET 0.000000 0.000000 0.000000
									CHANNELS 6 Xposition Yposition Zposition Xrotation Yrotation Zrotation
									End Site
									{
										OFFSET -0.113147 -0.023106 -0.058600
									}
								}
							}
							JOINT upperarm_twist_R
							{
								OFFSET 0.000000 0.000000 0.000000
								CHANNELS 6 Xposition Yposition Zposition Xrotation Yrotation Zrotation
								End Site
								{
									OFFSET -0.131225 0.003005 -0.082365
								}
							}
						}
					}
					JOINT neck
					{
						OFFSET -0.000000 -0.002726 0.194733
						CHANNELS 6 Xposition Yposition Zposition Xrotation Yrotation Zrotation
						JOINT head
						{
							OFFSET 0.000000 -0.047407 0.104388
							CHANNELS 3 Xrotation Yrotation Zrotation
							End Site
							{
								OFFSET -0.000000 -0.000839 0.155358
							}
						}
					}
					JOINT breast_L
					{
						OFFSET 0.075423 -0.033073 0.045626
						CHANNELS 6 Xposition Yposition Zposition Xrotation Yrotation Zrotation
						End Site
						{
							OFFSET 0.027052 -0.131754 -0.030994
						}
					}
					JOINT breast_R
					{
						OFFSET -0.075423 -0.033073 0.045626
						CHANNELS 6 Xposition Yposition Zposition Xrotation Yrotation Zrotation
						End Site
						{
							OFFSET -0.027052 -0.131754 -0.030994
						}
					}
				}
			}
		}
	}
}
MOTION
Frames: 4
Frame Time: 0.041667
0.000000 0.000642 0.045086 0.000000 0.000000 0.000000 0.786275 -2.725955 1.472417 -15.067812 -6.977809 -180.549248 -0.108457 -0.044120 -0.114619 -14.856776 -12.672456 -3.048691 27.919358 -3.659391 -2.517220 -51.404482 -6.713087 -3.490394 -0.009320 -0.126011 -0.069821 22.300079 -1.442590 2.586686 -0.000000 -0.000001 -0.000000 0.000000 -0.000004 0.000000 -0.000000 0.000000 0.000000 0.000003 0.000002 -0.000000 0.116390 -0.044120 -0.114620 -14.558299 -2.042450 3.539531 28.318267 3.955137 2.474858 -47.452422 17.252699 -3.241902 20.388846 1.496935 -3.383941 0.000000 -0.000000 -0.000000 -0.000000 -0.000002 -0.000001 -0.000000 0.000000 -0.000000 0.000001 -0.000002 0.000000 0.950027 -8.878465 -6.553660 -4.460614 0.359354 -6.603788 -27.584532 0.361834 -3.897501 0.031960 -0.002455 0.159581 0.000003 -0.000006 -0.000003 0.106614 -0.013377 -0.022582 90.053305 33.470734 -57.569226 -13.247128 -12.474168 -19.777827 16.526768 -10.784058 -14.458501 0.008269 -0.017364 -0.009129 0.000923 -0.000074 -0.000377 -0.000300 -0.000124 0.000231 -49.144461 1.537183 -8.039269 0.015791 -0.019370 -0.010869 -0.000004 -0.000020 0.000001 -0.000181 0.014387 -0.000344 -61.597214 -9.730439 -51.922166 -0.084818 -6.033709 -0.429609 0.016274 -0.006169 -0.012862 0.000003 0.000007 -0.000001 -0.000647 0.015497 -0.000432 -0.000113 0.033335 0.000383 0.000282 0.071437 0.000419 0.017108 0.003471 -0.011996 -0.000006 -0.000018 -0.000002 -0.000005 0.017520 0.000235 -0.000667 0.031911 0.000153 0.000755 0.091893 -0.004035 0.014367 0.020048 -0.015014 -0.000001 -0.000002 -0.000001 0.000248 0.017948 -0.000006 0.001923 0.039131 -0.002047 0.005972 0.104258 -0.005367 -0.000000 -0.000000 -0.000001 -0.000019 0.000675 0.000307 0.000000 0.000000 -0.000000 -0.000007 0.001360 -0.000067 -0.031960 -0.002455 0.159580 -0.000002 0.000012 -0.000005 -0.106614 -0.013377 -0.022582 88.808107 -2.780086 63.498718 -12.734086 12.102052 19.097096 12.905204 9.555088 12.672436 -0.008268 -0.017364 -0.009130 0.001380 -0.000750 0.000198 -0.000071 -0.000408 0.000089 176.746718 -212.965353 -217.653595 -0.015791 -0.019370 -0.010870 -0.000005 0.000017 -0.000000 -0.000145 -0.013005 0.000295 -3.648437 49.992091 6.471396 -0.104087 6.073242 0.345167 -0.016274 -0.006169 -0.012863 0.000000 0.000013 -0.000001 -0.000566 -0.013611 0.000378 -0.001186 -0.011800 0.000789 0.000542 -0.020172 -0.000668 -0.017107 0.003471 -0.011996 -0.000000 0.000003 0.000001 -0.000716 -0.016767 0.000435 -0.000648 -0.015888 0.000172 -0.000129 -0.042072 0.002318 -0.014367 0.020048 -0.015015 0.000001 -0.000002 0.000000 -0.000991 -0.017897 0.001033 0.000526 -0.022095 0.001600 0.000330 -0.056886 0.006361 -0.000001 0.000000 -0.000000 -0.000000 -0.000000 0.000005 0.000001 0.000000 0.000000 -0.000002 -0.000076 0.000004 -0.000000 -0.002727 0.194732 10.947335 31.940943 -8.268007 12.699428 -11.003434 -5.504584 0.075423 -0.033073 0.045626 0.000424 0.000108 -0.000167 -0.075424 -0.033073 0.045626 0.000445 -0.000114 0.000183 
0.000000 0.000642 0.045086 0.000000 0.000000 0.000000 0.786580 -2.723963 1.472542 -15.112699 -7.033706 -180.934211 -0.108457 -0.044119 -0.114619 -15.039723 -12.863899 -2.733900 28.399300 -3.676231 -2.553739 -51.481134 -7.076182 -3.173285 -0.009320 -0.126011 -0.069821 23.908223 -1.494011 2.063103 -0.000000 0.000000 -0.000000 0.000004 -0.000003 0.000001 -0.000000 0.000000 0.000000 0.000002 0.000003 -0.000000 0.116390 -0.044119 -0.114620 -14.486094 -2.098286 3.182531 28.469974 3.960953 2.485787 -47.353630 17.007005 -3.031064 19.990242 1.493088 -3.529137 0.000000 -0.000000 -0.000000 -0.000004 -0.000001 0.000000 -0.000000 -0.000000 -0.000000 0.000002 -0.000001 0.000000 0.588103 -8.578448 -6.601221 -4.356372 0.294580 -6.497632 -27.229956 0.238888 -3.723964 0.031960 -0.002455 0.159581 0.000005 -0.000005 -0.000003 0.106614 -0.013377 -0.022582 90.210646 33.237910 -57.599183 -13.379514 -12.528777 -19.971670 15.751605 -10.511086 -14.081299 0.008269 -0.017364 -0.009130 0.000923 -0.000081 -0.000376 -0.000302 -0.000123 0.000228 -48.691473 1.974940 -8.218718 0.015791 -0.019370 -0.010870 -0.000006 -0.000024 0.000002 -0.000179 0.014391 -0.000344 -61.183393 -9.184508 -51.850623 -0.084825 -6.033703 -0.429622 0.016274 -0.006169 -0.012862 0.000002 0.000010 0.000001 -0.000647 0.015499 -0.000432 -0.000113 0.033342 0.000383 0.000282 0.071437 0.000419 0.017107 0.003471 -0.011996 -0.000006 -0.000019 -0.000002 -0.000006 0.017518 0.000234 -0.000667 0.031911 0.000153 0.000754 0.091896 -0.004034 0.014367 0.020048 -0.015014 -0.000002 -0.000002 -0.000001 0.000248 0.017950 -0.000006 0.001923 0.039140 -0.002048 0.005973 0.104258 -0.005368 -0.000000 -0.000000 -0.000000 -0.000017 0.000670 0.000311 0.000000 0.000000 0.000000 -0.000004 0.001355 -0.000064 -0.031960 -0.002455 0.159580 0.000004 0.000012 -0.000005 -0.106614 -0.013377 -0.022582 88.759299 -2.629726 63.938869 -12.639862 12.064604 18.965108 12.486623 9.420863 12.462247 -0.008269 -0.017364 -0.009130 0.001381 -0.000750 0.000194 -0.000073 -0.000410 0.000096 178.610348 -212.362056 -219.201534 -0.015791 -0.019369 -0.010870 -0.000005 0.000022 -0.000000 -0.000145 -0.013003 0.000296 -1.227806 49.339121 4.359037 -0.104087 6.073236 0.345168 -0.016274 -0.006169 -0.012863 0.000000 0.000011 -0.000001 -0.000567 -0.013614 0.000378 -0.001185 -0.011793 0.000789 0.000542 -0.020169 -0.000669 -0.017107 0.003471 -0.011997 0.000000 0.000005 0.000000 -0.000717 -0.016775 0.000437 -0.000647 -0.015889 0.000171 -0.000128 -0.042075 0.002318 -0.014367 0.020048 -0.015015 0.000001 -0.000002 -0.000000 -0.000991 -0.017901 0.001033 0.000528 -0.022088 0.001602 0.000329 -0.056885 0.006361 -0.000001 0.000000 -0.000000 0.000001 -0.000004 0.000006 0.000001 -0.000000 0.000001 -0.000001 -0.000076 0.000001 -0.000000 -0.002727 0.194732 11.140959 31.360018 -7.848893 12.614853 -10.859612 -5.271131 0.075423 -0.033073 0.045625 0.000427 0.000107 -0.000166 -0.075424 -0.033073 0.045626 0.000447 -0.000114 0.000185 
0.000000 0.000642 0.045086 0.000000 0.000000 0.000000 0.786802 -2.723212 1.472448 -14.750282 -7.350451 -180.882903 -0.108457 -0.044119 -0.114619 -14.668629 -13.207638 -2.902405 28.508054 -3.679084 -2.557480 -51.480276 -7.047414 -3.197464 -0.009320 -0.126012 -0.069821 23.573262 -1.482132 2.172101 -0.000000 -0.000000 -0.000000 0.000001 -0.000002 -0.000000 -0.000000 0.000000 0.000000 0.000003 0.000002 -0.000000 0.116390 -0.044120 -0.114620 -14.300779 -2.598208 3.560616 28.804899 3.974876 2.509771 -47.536990 17.238008 -3.218900 18.085958 1.488668 -4.223061 0.000000 -0.000000 -0.000000 0.000003 0.000000 0.000000 -0.000000 -0.000000 -0.000001 0.000001 -0.000002 0.000000 0.658884 -9.024165 -6.497535 -4.319336 0.241520 -6.390051 -27.215283 0.449009 -3.805327 0.031960 -0.002454 0.159582 0.000004 -0.000007 0.000001 0.106614 -0.013377 -0.022582 90.304472 33.208506 -57.983634 -13.384461 -12.531201 -19.979896 14.875908 -10.209230 -13.651750 0.008269 -0.017364 -0.009130 0.000923 -0.000073 -0.000377 -0.000301 -0.000115 0.000228 -47.898027 2.392731 -8.326306 0.015791 -0.019370 -0.010870 -0.000005 -0.000022 0.000001 -0.000180 0.014398 -0.000343 -60.424874 -8.641244 -51.650126 -0.084830 -6.033700 -0.429635 0.016274 -0.006169 -0.012863 0.000003 0.000012 0.000001 -0.000647 0.015490 -0.000432 -0.000113 0.033342 0.000383 0.000283 0.071435 0.000418 0.017108 0.003471 -0.011997 -0.000006 -0.000019 -0.000001 -0.000005 0.017516 0.000234 -0.000667 0.031909 0.000154 0.000754 0.091894 -0.004034 0.014367 0.020048 -0.015014 -0.000001 0.000002 0.000000 0.000248 0.017955 -0.000006 0.001923 0.039140 -0.002047 0.005973 0.104258 -0.005368 -0.000000 -0.000000 -0.000001 -0.000019 0.000672 0.000309 0.000000 0.000000 0.000000 -0.000003 0.001364 -0.000063 -0.031959 -0.002455 0.159580 0.000001 0.000012 -0.000004 -0.106614 -0.013377 -0.022582 88.784946 -2.805554 63.773203 -12.683171 12.081778 19.025753 12.419280 9.399421 12.428362 -0.008269 -0.017364 -0.009130 0.001373 -0.000753 0.000194 -0.000076 -0.000415 0.000098 175.814547 -212.745776 -216.764386 -0.015791 -0.019369 -0.010870 -0.000005 0.000019 -0.000001 -0.000146 -0.013003 0.000295 -5.003800 49.755886 7.613663 -0.104088 6.073230 0.345166 -0.016274 -0.006169 -0.012862 0.000000 0.000006 -0.000002 -0.000568 -0.013609 0.000379 -0.001186 -0.011799 0.000789 0.000543 -0.020179 -0.000670 -0.017107 0.003471 -0.011996 -0.000001 0.000002 -0.000000 -0.000716 -0.016765 0.000435 -0.000647 -0.015891 0.000171 -0.000129 -0.042072 0.002318 -0.014367 0.020048 -0.015014 0.000001 -0.000005 -0.000000 -0.000989 -0.017897 0.001033 0.000526 -0.022084 0.001598 0.000329 -0.056881 0.006362 -0.000001 -0.000000 -0.000000 0.000002 -0.000004 0.000007 0.000001 -0.000000 0.000000 0.000002 -0.000069 -0.000003 0.000000 -0.002726 0.194733 11.440692 30.204695 -6.079393 12.575292 -10.670101 -4.681640 0.075423 -0.033073 0.045626 0.000424 0.000106 -0.000166 -0.075423 -0.033073 0.045627 0.000445 -0.000113 0.000185 
0.000000 0.000642 0.045086 0.000000 0.000000 0.000000 0.786230 -2.723084 1.472270 -14.511416 -7.304660 -180.843342 -0.108457 -0.044120 -0.114619 -14.460873 -13.108195 -3.000120 28.644131 -3.684297 -2.568832 -51.525192 -7.168611 -3.089225 -0.009320 -0.126011 -0.069821 23.743541 -1.488089 2.116626 -0.000000 0.000000 -0.000000 -0.000000 -0.000004 0.000000 -0.000000 0.000001 0.000000 0.000002 0.000003 -0.000000 0.116390 -0.044120 -0.114620 -14.187698 -2.605390 3.872637 29.010016 3.983739 2.526320 -47.432389 17.167931 -3.171482 17.220964 1.494181 -4.538146 0.000000 -0.000000 -0.000000 -0.000002 -0.000000 0.000001 -0.000000 0.000000 -0.000000 0.000000 -0.000002 0.000000 0.238563 -9.299047 -6.852932 -4.180019 0.332349 -6.647878 -26.894756 0.653667 -3.890523 0.031960 -0.002455 0.159582 0.000001 -0.000007 -0.000001 0.106614 -0.013377 -0.022582 89.842280 33.808637 -57.715973 -13.235750 -12.469439 -19.761107 14.269932 -10.004434 -13.352460 0.008269 -0.017364 -0.009130 0.000925 -0.000074 -0.000377 -0.000304 -0.000126 0.000232 -47.689610 2.864247 -8.588498 0.015791 -0.019370 -0.010869 -0.000005 -0.000022 0.000001 -0.000180 0.014399 -0.000344 -60.265717 -8.066726 -51.694437 -0.084832 -6.033698 -0.429646 0.016274 -0.006169 -0.012862 0.000003 0.000009 -0.000001 -0.000647 0.015492 -0.000432 -0.000114 0.033340 0.000382 0.000282 0.071435 0.000419 0.017107 0.003471 -0.011997 -0.000007 -0.000019 -0.000001 -0.000005 0.017525 0.000235 -0.000667 0.031908 0.000153 0.000754 0.091893 -0.004035 0.014367 0.020048 -0.015014 -0.000001 -0.000002 -0.000000 0.000248 0.017950 -0.000006 0.001923 0.039138 -0.002047 0.005972 0.104258 -0.005368 -0.000000 -0.000000 -0.000000 -0.000016 0.000672 0.000309 0.000000 0.000000 0.000000 -0.000007 0.001363 -0.000061 -0.031960 -0.002455 0.159580 0.000000 0.000012 -0.000006 -0.106614 -0.013377 -0.022582 88.314681 -2.786309 64.246583 -12.279159 11.906613 18.427685 13.097304 9.617254 12.768650 -0.008269 -0.017364 -0.009130 0.001378 -0.000753 0.000195 -0.000073 -0.000410 0.000099 178.613955 -212.268974 -219.183489 -0.015791 -0.019370 -0.010869 -0.000004 0.000017 -0.000001 -0.000146 -0.013003 0.000295 -1.249941 49.239530 4.371183 -0.104088 6.073229 0.345165 -0.016275 -0.006169 -0.012862 0.000001 0.000008 -0.000002 -0.000568 -0.013608 0.000379 -0.001184 -0.011798 0.000791 0.000542 -0.020172 -0.000670 -0.017108 0.003471 -0.011996 0.000000 0.000003 0.000000 -0.000716 -0.016767 0.000435 -0.000648 -0.015888 0.000171 -0.000130 -0.042077 0.002319 -0.014367 0.020048 -0.015015 0.000002 -0.000006 0.000001 -0.000988 -0.017895 0.001032 0.000525 -0.022094 0.001600 0.000329 -0.056884 0.006361 -0.000001 0.000000 -0.000000 0.000003 -0.000000 0.000004 0.000001 -0.000000 0.000000 0.000000 -0.000074 0.000002 -0.000000 -0.002727 0.194733 10.643089 27.894773 -1.843849 11.555773 -11.036248 -3.522446 0.075423 -0.033073 0.045626 0.000421 0.000109 -0.000167 -0.075423 -0.033073 0.045627 0.000442 -0.000112 0.000184 
